<?xml version="1.0" encoding="UTF-8"?>
<svg width="15px" height="23px" viewBox="0 0 15 23" version="1.1" xmlns="http://www.w3.org/2000/svg" xmlns:xlink="http://www.w3.org/1999/xlink">
    <!-- Generator: Sketch 43.2 (39069) - http://www.bohemiancoding.com/sketch -->
    <title>cancel</title>
    <desc>Created with Sketch.</desc>
    <defs></defs>
    <g id="Cancel" stroke="none" stroke-width="1" fill="none" fill-rule="evenodd">
        <g id="cancel">
            <g id="Group">
                <g id="Map-Pin-svg-icon" fill-rule="nonzero" fill="#E94F37">
                    <path d="M8.47699675,22.3146553 C8.32188312,22.7046413 7.92886364,22.9622044 7.48967532,22.9640481 C7.05,22.9653848 6.65459416,22.710495 6.49665584,22.3227675 C4.35214286,17.0534629 0.0374025974,10.2832585 0.0374025974,7.06791383 C0.0373538961,3.17118838 3.38663961,0 7.50584416,0 C11.6231006,0 14.9733604,3.17118838 14.9733604,7.06791383 C14.9737987,10.2927074 10.5953084,16.9886112 8.47699675,22.3146553 Z M7.50584416,1.34423246 C4.27597403,1.34423246 1.64897727,3.83049098 1.64897727,6.88598798 C1.64897727,9.94328257 4.27597403,12.4308778 7.50584416,12.4308778 C10.7347403,12.4308778 13.361737,9.94415832 13.361737,6.88598798 C13.36125,3.83049098 10.7347403,1.34423246 7.50584416,1.34423246 Z" id="Shape"></path>
                </g>
                <ellipse id="Oval" fill="#E94F37" cx="7.54999399" cy="6.8499999" rx="5.1500001" ry="4.8499999"></ellipse>
                <g id="caution-sing-svg-icon" transform="translate(3.500000, 2.500000)" fill-rule="nonzero" fill="#FFFFFF">
                    <path d="M7.48357626,6.21473659 L4.50658092,0.813088058 C4.42909628,0.671200206 4.28369968,0.583333333 4.12773699,0.583333333 C3.97190977,0.583333333 3.82687441,0.671318466 3.74889306,0.812709627 L0.758396617,6.23931093 C0.680550737,6.38056018 0.680550737,6.55591549 0.758396617,6.69716474 C0.83637796,6.83879243 0.981390747,6.9266593 1.13724055,6.9266593 L7.12010734,6.9266593 C7.3610277,6.9266593 7.55715506,6.72095857 7.55715506,6.46842705 C7.5570196,6.37398495 7.53035603,6.28316158 7.48357626,6.21473659 Z M4.33415952,2.61385044 L4.26527676,5.08022507 L3.88889373,5.08022507 L3.82025931,2.61385044 L4.33415952,2.61385044 L4.33415952,2.61385044 Z M4.07714169,6.11040798 C3.89835354,6.11040798 3.76842227,5.96811805 3.76842227,5.77168887 C3.76842227,5.5758983 3.89835354,5.43360837 4.07714169,5.43360837 C4.25913578,5.43360837 4.38635781,5.57268164 4.38635781,5.77168887 C4.38635781,5.97133471 4.2590229,6.11040798 4.07714169,6.11040798 Z" id="Shape"></path>
                </g>
            </g>
        </g>
    </g>
</svg>