<?xml version="1.0" encoding="UTF-8"?>
<svg width="24px" height="37px" viewBox="0 0 24 37" version="1.1" xmlns="http://www.w3.org/2000/svg" xmlns:xlink="http://www.w3.org/1999/xlink">
    <!-- Generator: Sketch 43.2 (39069) - http://www.bohemiancoding.com/sketch -->
    <title>cancel</title>
    <desc>Created with Sketch.</desc>
    <defs></defs>
    <g id="Cancel" stroke="none" stroke-width="1" fill="none" fill-rule="evenodd">
        <g id="cancel" fill-rule="nonzero" fill="#F6A623">
            <g id="Map-Pin-svg-icon">
                <path d="M13.5631948,35.897489 C13.315013,36.5248577 12.6861818,36.9391984 11.9834805,36.9421643 C11.28,36.9443146 10.6473506,36.5342745 10.3946494,35.9105391 C6.96342857,27.4338317 0.0598441558,16.5426333 0.0598441558,11.3701222 C0.0597662338,5.10147695 5.41862338,0 12.0093506,0 C18.596961,0 23.9573766,5.10147695 23.9573766,11.3701222 C23.9580779,16.5578337 16.9524935,27.329505 13.5631948,35.897489 Z M12.0093506,2.16246092 C6.84155844,2.16246092 2.63836364,6.16209419 2.63836364,11.0774589 C2.63836364,15.9957154 6.84155844,19.997499 12.0093506,19.997499 C17.1755844,19.997499 21.3787792,15.9971242 21.3787792,11.0774589 C21.378,6.16209419 17.1755844,2.16246092 12.0093506,2.16246092 Z" id="Shape"></path>
            </g>
            <g id="Caution-svg-icon" transform="translate(5.688312, 4.226453)">
                <path d="M12.6643506,9.98724507 L7.10642857,0.44013073 C6.96188312,0.189602703 6.69064935,0.0340048325 6.39928571,0.0340048325 C6.10857143,0.0340048325 5.8375974,0.18934509 5.69188312,0.439229087 L0.109090909,10.0305884 C-0.0363636364,10.2802147 -0.0363636364,10.5901868 0.109090909,10.8398132 C0.254545455,11.090148 0.525519481,11.2456815 0.816038961,11.2456815 L11.9855195,11.2456815 C12.4354545,11.2456815 12.8014286,10.8821904 12.8014286,10.4354906 C12.8014935,10.2688798 12.7517532,10.1084517 12.6643506,9.98724507 Z M11.9855195,10.7761829 L0.816298701,10.7761829 C0.694090909,10.7761829 0.57974026,10.7112002 0.518571429,10.6058368 C0.457207792,10.5004733 0.457012987,10.3697994 0.518571429,10.2645004 L6.10136364,0.673398729 C6.16246753,0.568550495 6.27655844,0.503052551 6.39928571,0.503052551 C6.52149351,0.503052551 6.63655844,0.568486092 6.69746753,0.673398729 L12.2665584,10.2396408 C12.3072078,10.2972816 12.3292857,10.364776 12.3292857,10.4358126 C12.3292857,10.6234188 12.1747403,10.7761829 11.9855195,10.7761829 Z" id="Shape"></path>
                <polygon id="Shape" points="6.6561039 7.9819904 6.78480519 3.62299593 5.82525974 3.62299593 5.95331169 7.9819904"></polygon>
                <path d="M6.30493506,8.60663599 C5.97077922,8.60663599 5.72837662,8.85813007 5.72837662,9.20429668 C5.72837662,9.55142935 5.97077922,9.80285902 6.30493506,9.80285902 C6.64448052,9.80285902 6.88194805,9.55716123 6.88194805,9.20429668 C6.88194805,8.85233379 6.64467532,8.60663599 6.30493506,8.60663599 Z" id="Shape"></path>
            </g>
        </g>
    </g>
</svg>