<?xml version="1.0" encoding="UTF-8"?>
<svg width="24px" height="37px" viewBox="0 0 24 37" version="1.1" xmlns="http://www.w3.org/2000/svg" xmlns:xlink="http://www.w3.org/1999/xlink">
    <!-- Generator: Sketch 43.2 (39069) - http://www.bohemiancoding.com/sketch -->
    <title>cancel</title>
    <desc>Created with Sketch.</desc>
    <defs></defs>
    <g id="Cancel" stroke="none" stroke-width="1" fill="none" fill-rule="evenodd">
        <g id="cancel" fill-rule="nonzero" fill="#E94F37">
            <g id="Map-Pin-svg-icon">
                <path d="M13.5631948,35.897489 C13.315013,36.5248577 12.6861818,36.9391984 11.9834805,36.9421643 C11.28,36.9443146 10.6473506,36.5342745 10.3946494,35.9105391 C6.96342857,27.4338317 0.0598441558,16.5426333 0.0598441558,11.3701222 C0.0597662338,5.10147695 5.41862338,0 12.0093506,0 C18.596961,0 23.9573766,5.10147695 23.9573766,11.3701222 C23.9580779,16.5578337 16.9524935,27.329505 13.5631948,35.897489 Z M12.0093506,2.16246092 C6.84155844,2.16246092 2.63836364,6.16209419 2.63836364,11.0774589 C2.63836364,15.9957154 6.84155844,19.997499 12.0093506,19.997499 C17.1755844,19.997499 21.3787792,15.9971242 21.3787792,11.0774589 C21.378,6.16209419 17.1755844,2.16246092 12.0093506,2.16246092 Z" id="Shape"></path>
            </g>
            <g id="caution-sing-svg-icon" transform="translate(6.000000, 4.000000)">
                <path d="M11.8603421,10.6553755 L6.65538158,0.467375465 C6.51990789,0.199762082 6.26569737,0.0340371747 5.99301316,0.0340371747 C5.72056579,0.0340371747 5.46698684,0.19998513 5.33064474,0.46666171 L0.102078947,10.7017249 C-0.0340263158,10.9681338 -0.0340263158,11.2988699 0.102078947,11.5652788 C0.238421053,11.8324015 0.491960526,11.9981264 0.764447368,11.9981264 L11.2248553,11.9981264 C11.6460789,11.9981264 11.9889868,11.6101561 11.9889868,11.1338587 C11.98875,10.9557323 11.9421316,10.7844312 11.8603421,10.6553755 Z M6.35392105,3.86377695 L6.23348684,8.51558364 L5.57542105,8.51558364 L5.45542105,3.86377695 L6.35392105,3.86377695 L6.35392105,3.86377695 Z M5.90455263,10.4586022 C5.59196053,10.4586022 5.36478947,10.1902305 5.36478947,9.81974721 C5.36478947,9.4504684 5.59196053,9.18209665 5.90455263,9.18209665 C6.22275,9.18209665 6.44518421,9.44440149 6.44518421,9.81974721 C6.44518421,10.1962974 6.22255263,10.4586022 5.90455263,10.4586022 Z" id="Shape"></path>
            </g>
        </g>
    </g>
</svg>