<?xml version="1.0" encoding="utf-8"?>
<!-- Generator: Adobe Illustrator 19.0.0, SVG Export Plug-In . SVG Version: 6.00 Build 0)  -->
<svg version="1.1" xmlns="http://www.w3.org/2000/svg" xmlns:xlink="http://www.w3.org/1999/xlink" x="0px" y="0px"
	 viewBox="0 0 612 792" style="enable-background:new 0 0 612 792;" xml:space="preserve">
<style type="text/css">
	.st0{fill:#D1D3D4;}
	.st1{fill:#808285;}
	.st2{fill:#58595B;}
	.st3{fill:#57B947;}
	.st4{fill:#FFFFFF;}
</style>
<g id="Layer_2">
	<path id="XMLID_3_" d="M230.2,249.9"/>
	<path id="XMLID_13_" d="M195.2,205.8"/>
	<path id="XMLID_14_" d="M196.7,205.8"/>
</g>
<g id="Layer_4">
	<path id="XMLID_4_" class="st0" d="M194,216.6"/>
	<path id="XMLID_6_" d="M194.1,214.1"/>
</g>
<g id="Layer_5">
	<g id="XMLID_1_">
		<path id="XMLID_2_" class="st1" d="M151.8,186.3c0,2.6,0,5.2,0,7.8c3.9,0.1,7,0,9.1,0c1.7,0,3.3,0,6.4,0c2.2,0,3.1,0,4.4,0.1
			c1.6,0.2,3.2,0.3,5.1,1.1c1,0.4,1.8,0.8,2.4,1.2c0,0,0.3,0.2,0.6,0.4c3.8,2.6,5,6.8,5,6.8c0.3,0.9,0.5,1.8,0.6,3
			c0,0.8,0,2.2,0.2,2.3c0,0,0,0,0,0c0,0,0.1-0.1,0.4-0.5c0.1-0.2,0.2-0.3,0.3-0.4c0.3-0.4,0.5-1,0.8-1.6c0.3-0.7,0.4-1.2,0.5-1.7
			c0.2-0.7,0.5-1.8,0.5-3.4c0-0.6,0-1.4-0.1-2.3c-0.1-1.2-0.5-3.7-2.2-6.3c-1.6-2.4-3.5-3.7-4.6-4.3c-0.5-0.3-1.1-0.6-2-0.9
			c-1.6-0.6-2.8-0.8-4.1-0.9c-0.8-0.1-1.8-0.2-3-0.2C165.3,186.3,158.5,186.3,151.8,186.3z"/>
		<path id="XMLID_11_" class="st0" d="M193,203.8"/>
		<path id="XMLID_12_" d="M192,209.9"/>
		<path id="XMLID_5_" class="st2" d="M149.3,194.1c0,2.6,0.1,5.2,0.1,7.8c3.2,0,5.8,0,7.6,0c4.3,0,5,0,5,0c0.4,0,1.9,0,4.7,0
			c0.3,0,0.9,0,1.7,0c0.5,0,1,0.1,1.3,0.1c0.8,0.1,2,0.2,3.4,0.5c0.7,0.1,1.2,0.3,1.7,0.4c0.2,0.1,0.7,0.3,1.5,0.6
			c1.4,0.7,2.4,1.5,2.8,1.9c0.4,0.4,1,0.9,1.7,1.7c0.5,0.6,0.8,1.1,1,1.5c0.9,1.5,1.3,2.8,1.4,3.2c0.3,1,0.5,1.8,0.6,2.7
			c0,0.1,0,0.8,0.1,0.8c0,0,0-0.1,0.1-0.3c0.1-0.2,0.2-0.3,0.4-0.9c0.1-0.2,0.2-0.4,0.2-0.5c0.2-0.4,0.3-0.8,0.4-1.2
			c0.2-0.7,0.5-1.8,0.5-3.4c0-0.6,0-1.4-0.1-2.3c-0.1-1.2-0.5-3.7-2.2-6.3c-1.6-2.4-3.5-3.7-4.6-4.3c-0.5-0.3-1.1-0.6-2-0.9
			c-1.6-0.6-2.8-0.8-4.1-0.9c-0.8-0.1-1.8-0.2-3-0.2C162.8,194.1,156,194.1,149.3,194.1z"/>
		<path id="XMLID_9_" class="st3" d="M173.9,240.6"/>
		<path id="XMLID_10_" d="M193.3,213.7"/>
		<path id="XMLID_15_" d="M146.9,198"/>
		<path id="XMLID_8_" d="M147.7,201.9l0,48h8.6v-19l11.7,0c1.2,0,2.3-0.1,3.1-0.2c0.7-0.1,1.5-0.2,2.6-0.6c1.1-0.3,1.9-0.7,2.6-1.1
			c0.8-0.4,1.8-1.1,2.9-2c1.2-1,2-2.1,2.5-2.9c0.3-0.5,0.7-1.2,1.1-2.1c0.3-0.7,0.4-1.2,0.5-1.7c0.2-0.7,0.5-1.8,0.5-3.4
			c0-0.6,0-1.4-0.1-2.3c-0.1-1.2-0.5-3.7-2.2-6.3c-1.6-2.4-3.5-3.7-4.6-4.3c-0.5-0.3-1.1-0.6-2-0.9c-1.6-0.6-2.8-0.8-4.1-0.9
			c-0.8-0.1-1.8-0.2-3-0.2C161.2,201.9,154.4,201.9,147.7,201.9z"/>
		<path id="XMLID_7_" class="st4" d="M156.8,209.7c0,4.8,0,9.6,0,14.4h10.6c0.2,0,0.4,0,0.5,0c1.1-0.1,2.1-0.3,2.9-0.6
			c0.5-0.2,1.2-0.5,1.9-1c0.7-0.6,1.2-1.2,1.5-1.7c0.2-0.3,0.4-0.8,0.6-1.3c0.3-0.9,0.4-1.7,0.4-2.3c0-0.4,0-1-0.1-1.7
			c-0.1-0.6-0.3-1.1-0.4-1.6c-0.3-0.9-1.1-2.2-2.5-3c-0.2-0.1-0.4-0.2-0.6-0.3c-0.3-0.1-0.7-0.3-1.2-0.4c-0.5-0.1-0.9-0.2-1.3-0.3
			c-0.3,0-0.8-0.1-1.4-0.2c-1.1-0.1-2-0.1-2.2-0.1C162.7,209.7,159.8,209.7,156.8,209.7z"/>
	</g>
</g>
</svg>
