<?xml version="1.0" encoding="UTF-8"?>
<svg width="24px" height="37px" viewBox="0 0 24 37" version="1.1" xmlns="http://www.w3.org/2000/svg" xmlns:xlink="http://www.w3.org/1999/xlink">
    <!-- Generator: Sketch 43.2 (39069) - http://www.bohemiancoding.com/sketch -->
    <title>money</title>
    <desc>Created with Sketch.</desc>
    <defs></defs>
    <g id="Money" stroke="none" stroke-width="1" fill="none" fill-rule="evenodd">
        <g id="money" fill-rule="nonzero" fill="#85BF16">
            <g id="Map-Pin-svg-icon">
                <path d="M13.5631948,35.897489 C13.315013,36.5248577 12.6861818,36.9391984 11.9834805,36.9421643 C11.28,36.9443146 10.6473506,36.5342745 10.3946494,35.9105391 C6.96342857,27.4338317 0.0598441558,16.5426333 0.0598441558,11.3701222 C0.0597662338,5.10147695 5.41862338,0 12.0093506,0 C18.596961,0 23.9573766,5.10147695 23.9573766,11.3701222 C23.9580779,16.5578337 16.9524935,27.329505 13.5631948,35.897489 Z M12.0093506,2.16246092 C6.84155844,2.16246092 2.63836364,6.16209419 2.63836364,11.0774589 C2.63836364,15.9957154 6.84155844,19.997499 12.0093506,19.997499 C17.1755844,19.997499 21.3787792,15.9971242 21.3787792,11.0774589 C21.378,6.16209419 17.1755844,2.16246092 12.0093506,2.16246092 Z" id="Shape"></path>
            </g>
            <g id="Money-Bag-svg-icon" transform="translate(7.168831, 4.374749)">
                <path d="M6.307757,2.53683471 L6.307757,2.55463861 L3.24644031,2.56978852 L3.34043968,2.40175729 L3.34043968,2.40175729 L3.51130496,2.23156969 L5.97183539,2.21968199 L6.66433265,0 L2.96608512,0.0189097333 L3.49581443,2.17760507 C3.11289313,1.77353393 2.17154984,0.915131566 1.31563918,1.21226872 L1.4085237,1.45428013 C2.13657878,1.1998281 3.02687373,2.06359376 3.33932483,2.40175729 C2.81822094,2.58272676 2.14232906,2.71454197 1.74162885,2.37693136 L1.56049523,2.57139197 C1.79842748,2.772377 2.09996479,2.84149153 2.41752073,2.84044099 C2.60328978,2.84044099 2.79475043,2.81179993 2.97934596,2.77342754 C1.24000548,3.89866726 0.0258175559,6.3976825 0.0373181036,8.29108865 C0.0505202628,10.8035951 2.22494524,12.8288164 4.88779142,12.8153253 C7.55468628,12.8034376 9.70329366,10.7554914 9.69015023,8.24193441 C9.67747613,6.21616012 8.25686509,3.5032769 6.307757,2.53683471 Z M6.24925677,9.75559773 C5.99360429,9.96952098 5.6737013,10.1045984 5.2964716,10.1650875 L5.30104835,10.8884124 L4.47611876,10.8927252 L4.47154202,10.1699531 C4.09888906,10.1105146 3.76414098,9.96360484 3.47287201,9.73563746 C3.12374824,9.45420315 2.94431623,9.12792729 2.93516273,8.76598839 L2.95065326,8.56771266 L3.75211234,8.56445043 L3.75557424,8.64008933 C3.76132452,8.93988053 3.85761227,9.164088 4.05024644,9.32343847 C4.24288061,9.48223595 4.51801361,9.56218769 4.87230089,9.56218769 C5.22600141,9.55842785 5.50289469,9.47576688 5.69840401,9.31531056 C5.89103818,9.15214501 5.9839227,8.93175262 5.98274918,8.64384917 C5.98157565,8.40725634 5.89215303,8.22247174 5.70644265,8.08313686 C5.51380848,7.94053982 5.18017525,7.81679714 4.71240807,7.71307012 C4.19417931,7.59905874 3.79518072,7.42406083 3.53319121,7.19393709 C3.26662494,6.95734426 3.12785558,6.65263215 3.12556721,6.29235197 C3.12327883,5.88015296 3.29238382,5.53662614 3.63065248,5.2729957 C3.86113284,5.09313207 4.13397746,4.97480801 4.44243859,4.9207881 L4.43897669,4.29090599 L5.26331951,4.28659325 L5.26678141,4.89596217 C5.6353857,4.94296004 5.94496166,5.06399339 6.1868839,5.25358835 C6.51077688,5.50804038 6.68962212,5.86295727 6.71543968,6.30700425 L6.72001643,6.38424664 L5.91169223,6.38800647 L5.90253873,6.32480815 C5.86357769,6.04768656 5.76494289,5.84023241 5.60499139,5.7084172 C5.4485018,5.57875835 5.21743467,5.51069437 4.91765765,5.51340366 C4.60638006,5.51395658 4.35583242,5.58578039 4.18561258,5.72141072 C4.01533406,5.85538232 3.93453685,6.0369047 3.9356517,6.27996665 C3.9356517,6.49013009 4.01421922,6.65434619 4.17070881,6.77803354 C4.32948678,6.90443018 4.61383195,7.01412875 5.01511892,7.10270592 C5.60270302,7.23020839 6.04758645,7.42140684 6.34284541,7.67044027 C6.63810436,7.92323354 6.7905453,8.24469903 6.79171883,8.6265982 C6.79559146,9.08253288 6.61387106,9.46227567 6.24925677,9.75559773 Z" id="Shape"></path>
            </g>
        </g>
    </g>
</svg>