<?xml version="1.0" encoding="UTF-8"?>
<svg width="22px" height="34px" viewBox="0 0 22 34" version="1.1" xmlns="http://www.w3.org/2000/svg" xmlns:xlink="http://www.w3.org/1999/xlink">
    <!-- Generator: Sketch 43.2 (39069) - http://www.bohemiancoding.com/sketch -->
    <title>money</title>
    <desc>Created with Sketch.</desc>
    <defs></defs>
    <g id="Money" stroke="none" stroke-width="1" fill="none" fill-rule="evenodd">
        <g id="money">
            <g id="Map-Pin-svg-icon" fill-rule="nonzero" fill="#85BF16">
                <g>
                    <path d="M12.4329286,32.9868818 C12.2054286,33.5633828 11.629,33.9441283 10.9848571,33.9468537 C10.34,33.9488297 9.76007143,33.5720361 9.52842857,32.9988737 C6.38314286,25.2094669 0.0548571429,15.2013387 0.0548571429,10.4482204 C0.0547857143,4.68784369 4.96707143,0 11.0085714,0 C17.0472143,0 21.9609286,4.68784369 21.9609286,10.4482204 C21.9615714,15.2153066 15.5397857,25.1135992 12.4329286,32.9868818 Z M11.0085714,1.98712625 C6.27142857,1.98712625 2.4185,5.66246493 2.4185,10.1792866 C2.4185,14.6987655 6.27142857,18.3760802 11.0085714,18.3760802 C15.7442857,18.3760802 19.5972143,14.7000601 19.5972143,10.1792866 C19.5965,5.66246493 15.7442857,1.98712625 11.0085714,1.98712625 Z" id="Shape"></path>
                </g>
            </g>
            <ellipse id="Oval" fill="#85BF16" cx="11" cy="10.09375" rx="7.7" ry="6.90625"></ellipse>
            <text id="$" font-family="Roboto-Regular, Roboto" font-size="10" font-weight="normal" fill="#FFFFFF">
                <tspan x="8" y="13.5">$</tspan>
            </text>
        </g>
    </g>
</svg>