<?xml version="1.0" encoding="UTF-8"?>
<svg width="24px" height="37px" viewBox="0 0 24 37" version="1.1" xmlns="http://www.w3.org/2000/svg" xmlns:xlink="http://www.w3.org/1999/xlink">
    <!-- Generator: Sketch 43.2 (39069) - http://www.bohemiancoding.com/sketch -->
    <title>parking</title>
    <desc>Created with Sketch.</desc>
    <defs></defs>
    <g id="Parking" stroke="none" stroke-width="1" fill="none" fill-rule="evenodd">
        <g id="parking" fill-rule="nonzero" fill="#4990E2">
            <g transform="translate(4.085106, 3.547945)" id="Parking-sign-svg-icon">
                <g>
                    <path d="M7.63266683,4.74974727 C7.22552441,4.74974727 6.93854718,4.78348528 6.78290013,4.81651857 L6.78290013,7.33427221 C6.97469136,7.38976815 7.20177522,7.40104351 7.50114743,7.40104351 C8.6018418,7.40104351 9.27173917,6.88880723 9.27173917,6.01989946 C9.27164456,5.18420116 8.6489617,4.74974727 7.63266683,4.74974727 Z" id="Shape"></path>
                    <path d="M8.02750889,0.000176177569 C3.59454819,0.000176177569 0,3.34578822 0,7.47301205 C0,11.600324 3.59454819,14.9463765 8.02750889,14.9463765 C12.4599965,14.9463765 16.0544501,11.600324 16.0544501,7.47301205 C16.0544501,3.34622866 12.4599965,0.000176177569 8.02750889,0.000176177569 Z M10.048839,7.65676526 C9.45141927,8.20273954 8.54213767,8.47035327 7.50105282,8.47035327 C7.22552441,8.47035327 6.98595094,8.45925408 6.78280551,8.41485734 L6.78280551,11.2557206 L5.32275094,11.2557206 L5.32275094,3.84718958 C5.86141277,3.75795564 6.5912035,3.69100817 7.57334118,3.69100817 C8.64905632,3.69100817 9.42710238,3.90268552 9.94201502,4.30357758 C10.4198373,4.67152443 10.7316045,5.2616312 10.7316045,5.96343455 C10.731983,6.67651326 10.4922203,7.25640173 10.048839,7.65676526 Z" id="Shape"></path>
                </g>
            </g>
            <g id="Shape">
                <path d="M13.5631948,35.897489 C13.315013,36.5248577 12.6861818,36.9391984 11.9834805,36.9421643 C11.28,36.9443146 10.6473506,36.5342745 10.3946494,35.9105391 C6.96342857,27.4338317 0.0598441558,16.5426333 0.0598441558,11.3701222 C0.0597662338,5.10147695 5.41862338,0 12.0093506,0 C18.596961,0 23.9573766,5.10147695 23.9573766,11.3701222 C23.9580779,16.5578337 16.9524935,27.329505 13.5631948,35.897489 Z M12.0093506,2.16246092 C6.84155844,2.16246092 2.63836364,6.16209419 2.63836364,11.0774589 C2.63836364,15.9957154 6.84155844,19.997499 12.0093506,19.997499 C17.1755844,19.997499 21.3787792,15.9971242 21.3787792,11.0774589 C21.378,6.16209419 17.1755844,2.16246092 12.0093506,2.16246092 Z"></path>
            </g>
        </g>
    </g>
</svg>