<?xml version="1.0" encoding="UTF-8"?>
<svg width="22px" height="34px" viewBox="0 0 22 34" version="1.1" xmlns="http://www.w3.org/2000/svg" xmlns:xlink="http://www.w3.org/1999/xlink">
    <!-- Generator: Sketch 43.2 (39069) - http://www.bohemiancoding.com/sketch -->
    <title>parking</title>
    <desc>Created with Sketch.</desc>
    <defs></defs>
    <g id="Parking" stroke="none" stroke-width="1" fill="none" fill-rule="evenodd">
        <g id="parking" fill-rule="nonzero" fill="#4990E2">
            <g transform="translate(3.744681, 3.260274)" id="Parking-sign-svg-icon">
                <g>
                    <path d="M6.99661126,4.36463263 C6.62339737,4.36463263 6.36033492,4.39563512 6.21765845,4.42599004 L6.21765845,6.73960149 C6.39346708,6.79059776 6.60162728,6.8009589 6.87605181,6.8009589 C7.88502165,6.8009589 8.49909424,6.33025529 8.49909424,5.5317995 C8.49900751,4.76386052 7.92821489,4.36463263 6.99661126,4.36463263 Z" id="Shape"></path>
                    <path d="M7.35854981,0.000161892902 C3.2950025,0.000161892902 0,3.07450809 0,6.86709215 C0,10.6597572 3.2950025,13.7345081 7.35854981,13.7345081 C11.4216635,13.7345081 14.7165792,10.6597572 14.7165792,6.86709215 C14.7165792,3.07491283 11.4216635,0.000161892902 7.35854981,0.000161892902 Z M9.21143579,7.03594645 C8.663801,7.53765255 7.83029287,7.78356787 6.87596508,7.78356787 C6.62339737,7.78356787 6.40378836,7.77336862 6.21757171,7.73257161 L6.21757171,10.3430946 L4.87918836,10.3430946 L4.87918836,3.53525529 C5.3729617,3.45325654 6.04193655,3.39173724 6.94222941,3.39173724 C7.92830163,3.39173724 8.64151051,3.58625156 9.11351377,3.95463885 C9.55151752,4.29275218 9.83730413,4.83501245 9.83730413,5.47991283 C9.83765106,6.13517435 9.61786859,6.66804483 9.21143579,7.03594645 Z" id="Shape"></path>
                </g>
            </g>
            <g id="Shape">
                <path d="M12.4329286,32.9868818 C12.2054286,33.5633828 11.629,33.9441283 10.9848571,33.9468537 C10.34,33.9488297 9.76007143,33.5720361 9.52842857,32.9988737 C6.38314286,25.2094669 0.0548571429,15.2013387 0.0548571429,10.4482204 C0.0547857143,4.68784369 4.96707143,0 11.0085714,0 C17.0472143,0 21.9609286,4.68784369 21.9609286,10.4482204 C21.9615714,15.2153066 15.5397857,25.1135992 12.4329286,32.9868818 Z M11.0085714,1.98712625 C6.27142857,1.98712625 2.4185,5.66246493 2.4185,10.1792866 C2.4185,14.6987655 6.27142857,18.3760802 11.0085714,18.3760802 C15.7442857,18.3760802 19.5972143,14.7000601 19.5972143,10.1792866 C19.5965,5.66246493 15.7442857,1.98712625 11.0085714,1.98712625 Z"></path>
            </g>
        </g>
    </g>
</svg>