<?xml version="1.0" encoding="UTF-8"?>
<svg width="24px" height="37px" viewBox="0 0 24 37" version="1.1" xmlns="http://www.w3.org/2000/svg" xmlns:xlink="http://www.w3.org/1999/xlink">
    <!-- Generator: Sketch 43.2 (39069) - http://www.bohemiancoding.com/sketch -->
    <title>parking</title>
    <desc>Created with Sketch.</desc>
    <defs></defs>
    <g id="Parking" stroke="none" stroke-width="1" fill="none" fill-rule="evenodd">
        <g id="parking" fill-rule="nonzero" fill="#4990E2">
            <path d="M12.0004848,2.63164706 C17.1158788,2.63164706 21.2767879,6.67305882 21.2767879,11.638 C21.2767879,16.6029412 17.1147273,20.6409412 12.0004848,20.6409412 C6.88266667,20.6409412 2.72060606,16.6024118 2.72060606,11.638 C2.72060606,6.67358824 6.88272727,2.63164706 12.0004848,2.63164706 L12.0004848,2.63164706 Z M12.0004848,0 C5.37751515,0 0.00981818182,5.20923529 0.00981818182,11.6374118 C0.00981818182,18.0632941 12.0004848,36.9415882 12.0004848,36.9415882 C12.0004848,36.9415882 23.9905455,18.0633529 23.9905455,11.6374118 C23.9911515,5.20923529 18.622303,0 12.0004848,0 Z M15.0718788,7.52247059 C14.4252727,6.95694118 13.4032727,6.64029412 12.0117576,6.64029412 C10.8772121,6.64029412 9.98787879,6.73629412 9.30630303,6.84658824 L9.30630303,17.3161765 L10.7161818,17.3161765 L10.7161818,13.0701765 C11.0406667,13.1506471 11.4279394,13.165 11.8495152,13.165 C13.2273939,13.165 14.4252727,12.7712941 15.1855758,12.0017647 C15.7386061,11.4517647 16.0311515,10.696 16.0311515,9.73852941 C16.0293333,8.79429412 15.6545455,8.02417647 15.0718788,7.52247059 Z M11.8820606,12.0644118 C11.4118788,12.0644118 11.022303,12.0316471 10.7149697,11.9540588 L10.7149697,7.83623529 C10.9589091,7.77247059 11.4267273,7.72476471 12.0425455,7.72476471 C13.5815152,7.72476471 14.618303,8.40064706 14.618303,9.81617647 C14.6189091,11.2471765 13.5820606,12.0644118 11.8820606,12.0644118 Z" id="Shape"></path>
        </g>
    </g>
</svg>