<?xml version="1.0" encoding="UTF-8"?>
<svg width="24px" height="37px" viewBox="0 0 24 37" version="1.1" xmlns="http://www.w3.org/2000/svg" xmlns:xlink="http://www.w3.org/1999/xlink">
    <!-- Generator: Sketch 43.2 (39069) - http://www.bohemiancoding.com/sketch -->
    <title>personal</title>
    <desc>Created with Sketch.</desc>
    <defs></defs>
    <g id="Personal" stroke="none" stroke-width="1" fill="none" fill-rule="evenodd">
        <g id="personal" fill-rule="nonzero" fill="#F6A623">
            <g id="money">
                <g id="Map-Pin-svg-icon">
                    <path d="M13.5631948,35.897489 C13.315013,36.5248577 12.6861818,36.9391984 11.9834805,36.9421643 C11.28,36.9443146 10.6473506,36.5342745 10.3946494,35.9105391 C6.96342857,27.4338317 0.0598441558,16.5426333 0.0598441558,11.3701222 C0.0597662338,5.10147695 5.41862338,0 12.0093506,0 C18.596961,0 23.9573766,5.10147695 23.9573766,11.3701222 C23.9580779,16.5578337 16.9524935,27.329505 13.5631948,35.897489 Z M12.0093506,2.16246092 C6.84155844,2.16246092 2.63836364,6.16209419 2.63836364,11.0774589 C2.63836364,15.9957154 6.84155844,19.997499 12.0093506,19.997499 C17.1755844,19.997499 21.3787792,15.9971242 21.3787792,11.0774589 C21.378,6.16209419 17.1755844,2.16246092 12.0093506,2.16246092 Z" id="Shape"></path>
                </g>
            </g>
            <g id="Crown-svg-icon" transform="translate(5.600006, 5.500000)">
                <path d="M12.4652052,3.1679558 C12.467194,3.20861878 12.4645746,3.25 12.4556007,3.29110497 L11.6552276,6.93751381 C11.6148694,7.12121547 11.4703172,7.25038674 11.3041306,7.25138122 L6.50189179,7.27900552 L6.50004851,7.27900552 L1.69776119,7.27900552 C1.53070149,7.27900552 1.3851306,7.14939227 1.34477239,6.96475138 L0.544399254,3.30453039 C0.535182836,3.26232044 0.532514925,3.21977901 0.534843284,3.1780663 C0.225220149,3.06696133 0,2.73696133 0,2.3480663 C0,1.86823204 0.342705224,1.47790055 0.763992537,1.47790055 C1.18527985,1.47790055 1.52798507,1.86823204 1.52798507,2.3480663 C1.52798507,2.61828729 1.41927985,2.86005525 1.24906716,3.01977901 L2.25113433,4.16972376 C2.50439179,4.46038674 2.85582836,4.62701657 3.21536567,4.62701657 C3.64048507,4.62701657 4.04581343,4.39707182 4.3010597,4.0118232 L5.94788806,1.52651934 C5.80954478,1.36906077 5.7238806,1.15149171 5.7238806,0.91160221 C5.7238806,0.431767956 6.06658582,0.0414364641 6.48787313,0.0414364641 C6.90916045,0.0414364641 7.25186567,0.431767956 7.25186567,0.91160221 C7.25186567,1.14430939 7.17076119,1.35552486 7.03964552,1.5118232 C7.04008209,1.51248619 7.04061567,1.51303867 7.04105224,1.51375691 L8.67594776,4.0059116 C8.93109701,4.39486188 9.3378806,4.62707182 9.76421269,4.62707182 C10.1270485,4.62707182 10.46825,4.4661326 10.724806,4.1738674 L11.7331791,3.02535912 C11.5593769,2.86569061 11.4477612,2.62160221 11.4477612,2.3480663 C11.4477612,1.86823204 11.7904664,1.47790055 12.2117537,1.47790055 C12.633041,1.47790055 12.9757463,1.86823204 12.9757463,2.3480663 C12.9757463,2.72657459 12.7620709,3.04850829 12.4652052,3.1679558 Z M11.5771306,8.57734807 C11.5771306,8.34850829 11.4142425,8.16298343 11.2133246,8.16298343 L1.80287687,8.16298343 C1.60195896,8.16298343 1.4390709,8.34850829 1.4390709,8.57734807 L1.4390709,9.5718232 C1.4390709,9.80066298 1.60195896,9.98618785 1.80287687,9.98618785 L11.2133246,9.98618785 C11.4142425,9.98618785 11.5771306,9.80066298 11.5771306,9.5718232 L11.5771306,8.57734807 Z" id="Shape"></path>
            </g>
        </g>
    </g>
</svg>