<?xml version="1.0" encoding="UTF-8"?>
<svg width="22px" height="34px" viewBox="0 0 22 34" version="1.1" xmlns="http://www.w3.org/2000/svg" xmlns:xlink="http://www.w3.org/1999/xlink">
    <!-- Generator: Sketch 43.2 (39069) - http://www.bohemiancoding.com/sketch -->
    <title>personal</title>
    <desc>Created with Sketch.</desc>
    <defs></defs>
    <g id="Personal" stroke="none" stroke-width="1" fill="none" fill-rule="evenodd">
        <g id="personal">
            <g id="money" fill-rule="nonzero" fill="#F6A623">
                <g id="Map-Pin-svg-icon">
                    <path d="M12.4329286,32.9868818 C12.2054286,33.5633828 11.629,33.9441283 10.9848571,33.9468537 C10.34,33.9488297 9.76007143,33.5720361 9.52842857,32.9988737 C6.38314286,25.2094669 0.0548571429,15.2013387 0.0548571429,10.4482204 C0.0547857143,4.68784369 4.96707143,0 11.0085714,0 C17.0472143,0 21.9609286,4.68784369 21.9609286,10.4482204 C21.9615714,15.2153066 15.5397857,25.1135992 12.4329286,32.9868818 Z M11.0085714,1.98712625 C6.27142857,1.98712625 2.4185,5.66246493 2.4185,10.1792866 C2.4185,14.6987655 6.27142857,18.3760802 11.0085714,18.3760802 C15.7442857,18.3760802 19.5972143,14.7000601 19.5972143,10.1792866 C19.5965,5.66246493 15.7442857,1.98712625 11.0085714,1.98712625 Z" id="Shape"></path>
                </g>
            </g>
            <ellipse id="Oval" fill="#F6A623" cx="11" cy="10.09375" rx="7.7" ry="6.90625"></ellipse>
            <g id="Crown-svg-icon" transform="translate(6.160007, 5.312500)" fill-rule="nonzero" fill="#FFFFFF">
                <path d="M9.34890392,2.58763957 C9.35039552,2.62085378 9.34843097,2.65465465 9.34170056,2.68822989 L8.74142071,5.66667795 C8.71115205,5.81672855 8.60273787,5.92223782 8.47809795,5.92305012 L4.87641884,5.94561412 L4.87503638,5.94561412 L1.2733209,5.94561412 C1.14802612,5.94561412 1.03884795,5.83974383 1.00857929,5.68892605 L0.40829944,2.69919599 C0.401387127,2.6647182 0.399386194,2.62996964 0.401132463,2.595898 C0.168915112,2.50514559 0,2.23559604 0,1.91794004 C0,1.52600335 0.257028918,1.20717402 0.572994403,1.20717402 C0.888959888,1.20717402 1.14598881,1.52600335 1.14598881,1.91794004 C1.14598881,2.13866109 1.06445989,2.33614122 0.936800373,2.46660627 L1.68835075,3.40590049 C1.87829384,3.6433189 2.14187127,3.77942495 2.41152425,3.77942495 C2.73036381,3.77942495 3.03436007,3.59160221 3.22579478,3.27692466 L4.46091604,1.24688667 C4.35715858,1.11827186 4.29291045,0.940557795 4.29291045,0.744612015 C4.29291045,0.352675327 4.54993937,0.0338460007 4.86590485,0.0338460007 C5.18187034,0.0338460007 5.43889925,0.352675327 5.43889925,0.744612015 C5.43889925,0.934691155 5.3780709,1.1072155 5.27973414,1.23488262 C5.28006157,1.23542415 5.28046175,1.23587543 5.28078918,1.2364621 L6.50696082,3.27209596 C6.69832276,3.58979709 7.00341045,3.77947008 7.32315951,3.77947008 C7.59528638,3.77947008 7.8511875,3.64801221 8.04360448,3.40928509 L8.79988433,2.4711642 C8.66953265,2.34074428 8.5858209,2.14136877 8.5858209,1.91794004 C8.5858209,1.52600335 8.84284981,1.20717402 9.1588153,1.20717402 C9.47478078,1.20717402 9.7318097,1.52600335 9.7318097,1.91794004 C9.7318097,2.22711197 9.57155317,2.49007284 9.34890392,2.58763957 Z M8.68284795,7.00612214 C8.68284795,6.81920196 8.5606819,6.66766214 8.40999347,6.66766214 L1.35215765,6.66766214 C1.20146922,6.66766214 1.07930317,6.81920196 1.07930317,7.00612214 L1.07930317,7.81842616 C1.07930317,8.00534634 1.20146922,8.15688617 1.35215765,8.15688617 L8.40999347,8.15688617 C8.5606819,8.15688617 8.68284795,8.00534634 8.68284795,7.81842616 L8.68284795,7.00612214 Z" id="Shape"></path>
            </g>
        </g>
    </g>
</svg>